<?xml version="1.0"?>
<svg id="Layer_1" xmlns="http://www.w3.org/2000/svg" version="1.1" xmlns:xlink="http://www.w3.org/1999/xlink" viewBox="0 0 800 700">
  
  <defs>
    
    <linearGradient id="linear-gradient" x1="588.7" y1="311.86" x2="475.08" y2="395.61" gradientUnits="userSpaceOnUse">
      <stop offset="0" stop-color="#67348e"></stop>
      <stop offset="1" stop-color="#00adee"></stop>
    </linearGradient>
  </defs>
  <rect width="800" height="700"></rect>
  <g>
    <g>
      <path class="st2" d="M563.54,328.86l12.21,7.47c.35.21.35.72,0,.94l-32.02,19.69c-.37.23-.84-.04-.84-.47v-14.99c0-.19.1-.37.26-.47l19.82-12.18c.18-.11.4-.11.58,0ZM627.78,342.33l-84.15-51.78c-.32-.2-.74.03-.74.41v15.14c0,.17.09.33.23.41l69.66,42.87c.31.19.31.64,0,.83l-6.97,4.25c-.16.1-.35.09-.51,0l-21.02-12.94c-.16-.1-.35-.1-.51,0l-40.65,24.89c-.14.09-.23.25-.23.42v15.14c0,.38.42.61.74.41l40-24.66c.16-.1.35-.1.51,0l21.15,13.02c.16.1.35.1.51,0l21.97-13.49c5.56-3.41,5.56-11.49,0-14.91ZM584.73,367.56l-49.81,30.55c-.05.03-.12,0-.12-.07v-112.5c0-.19-.1-.37-.26-.47l-.72-.44c-5.64-3.45-12.89.61-12.89,7.23v116.64c0,6.34,6.95,10.23,12.36,6.91l64.6-39.67c.05-.03.05-.11,0-.14l-13.08-8.04s-.06-.02-.08,0Z"></path>
      <g class="st1">
        <path d="M584.73,367.56l-2.4,1.47,8.29,11.18,7.27-4.47c.05-.03.05-.11,0-.14l-13.08-8.04s-.06-.02-.09,0Z"></path>
        <path d="M542.88,290.96v15.14c0,.17.09.33.23.41l1.6.98,4.32-13.62-5.41-3.33c-.32-.2-.74.03-.74.41Z"></path>
      </g>
    </g>
    <g>
      <g>
        <polygon class="st0" points="193.4 364.63 192.77 364.63 177.93 321.51 168.06 321.51 187.79 375.72 198.49 375.72 217.8 321.51 207.94 321.51 193.4 364.63"></polygon>
        <rect class="st0" x="226.63" y="321.51" width="8.93" height="54.21"></rect>
        <path class="st0" d="M275.73,320.47c-8.83,0-15.79,3.84-19.42,10.59h-.62l-.93-9.55h-8.1v68.87h9.04v-24.95h.62c3.43,6.65,10.28,10.59,19.42,10.59,14.12,0,22.54-10.07,22.54-27.83s-8.41-27.73-22.54-27.73ZM289.02,353.7c0,9.03-6.13,14.75-15.79,14.75-10.49,0-17.55-6.75-17.55-16.82v-6.75c0-10.07,7.06-16.93,17.55-16.93,9.66,0,15.79,5.82,15.79,14.85v10.9Z"></path>
        <path class="st0" d="M341.99,319.64c-8.41,0-15.48,3.84-18.9,10.8h-.83l-1.56-9.76h-11.32v69.71h12.88v-24.95h.83c3.01,6.75,9.76,10.8,18.9,10.8,14.02,0,22.53-10.38,22.53-28.35s-8.41-28.25-22.53-28.25ZM351.23,352.77c0,8.2-5.19,12.98-13.81,12.98-9.14,0-15.16-5.92-15.16-15.06v-5.5c0-9.14,6.02-15.06,15.27-15.06s13.71,4.98,13.71,12.98v9.66Z"></path>
        <rect class="st0" x="374.28" y="301.46" width="12.77" height="74.26"></rect>
        <path class="st0" d="M445.32,339.37c0-4.26-1.14-8.31-4.15-12.56-3.01-4.26-9.35-7.17-18.07-7.17-14.02,0-22.95,6.65-23.88,18.38h12.67c.52-5.5,4.05-8.31,10.59-8.31s9.97,3.12,9.97,9.45v3.64h-15.37c-12.36,0-20.04,6.33-20.04,17.03s6.86,16.93,17.66,16.93c8.41,0,15.37-3.84,17.76-9.66h.73l.1,2.28c.73,4.26,2.91,6.33,8.72,6.33h10.6v-9.14h-7.27v-27.21ZM432.44,353.39c0,8-5.29,13.4-13.6,13.4-5.4,0-8.83-2.28-8.83-6.75v-2.49c0-3.84,3.32-6.54,9.14-6.54h13.29v2.39Z"></path>
        <polygon class="st0" points="491.25 320.68 477.18 351.07 463.11 320.68 450.25 320.68 468.07 359.17 473.43 359.17 458.99 390.39 471.85 390.39 504.11 320.68 491.25 320.68"></polygon>
      </g>
      <g>
        <path class="st0" d="M398.68,387.8v21.85h-3.89v-21.85h3.89Z"></path>
        <path class="st0" d="M408.14,409.65h-3.89v-21.85h4.62l10.01,16.51h.18l-.23-6.41v-10.1h3.89v21.85h-4.65l-9.95-16.45h-.17l.2,6.21v10.24Z"></path>
        <path class="st0" d="M436.93,409.94c-3.18,0-5.67-.98-7.46-2.96-1.8-2-2.69-4.74-2.69-8.21s.91-6.29,2.72-8.28,4.38-2.99,7.68-2.99c2.74,0,4.99.72,6.76,2.15,1.77,1.4,2.77,3.3,3,5.72h-4.1c-.24-1.36-.87-2.42-1.89-3.2-1.01-.78-2.32-1.17-3.91-1.17-1.86,0-3.35.54-4.47,1.62-1.12,1.08-1.68,2.55-1.68,4.41v3.57c0,1.73.55,3.14,1.65,4.24,1.11,1.08,2.59,1.62,4.43,1.62,1.5,0,2.78-.4,3.83-1.19,1.05-.79,1.73-1.86,2.03-3.22h4.1c-.33,2.43-1.4,4.35-3.2,5.75-1.81,1.41-4.08,2.12-6.81,2.12Z"></path>
        <path class="st0" d="M453.81,409.65h-4v-4.43h4v4.43Z"></path>
      </g>
    </g>
  </g>
</svg>